<svg width="360" height="30" viewBox="0 0 360 30" fill="none" xmlns="http://www.w3.org/2000/svg">
<path d="M0.5 3.4999C4 3.9999 12.4 6.9999 18 14.9999C25 24.9999 43 35.9999 58.5 14.9999C74 -6.0001 92 5.9999 97 14.9999C102 23.9999 120.5 39 138.5 14.9999C156.5 -9.00017 175.746 12.3688 177.5 14.9999C179.5 18 195.5 41.5 215.5 14.9999C231.5 -6.20016 247.833 6.16654 254 14.9999C260.667 24.6666 278.2 38.2 295 14.9999C311.8 -8.20017 327.667 5.3332 333.5 14.9999C336.833 20.3333 346.7 30.1 359.5 26.5" stroke="#FE4400" stroke-width="3"/>
</svg>
